<svg xmlns="http://www.w3.org/2000/svg" viewBox="0 0 16 16" width="20px" height="20px">
    <path fill="white" d="M12.151 8.872c-.022-2.151 1.755-3.184 1.837-3.237-1.004-1.467-2.565-1.668-3.11-1.688-1.319-.134-2.57.77-3.234.77-.662 0-1.689-.75-2.788-.728-1.435.021-2.764.832-3.496 2.118-1.497 2.59-.384 6.427 1.075 8.54.713 1.029 1.56 2.178 2.678 2.135 1.082-.043 1.49-.692 2.796-.692 1.306 0 1.677.692 2.806.671 1.161-.022 1.892-1.046 2.603-2.073.814-1.177 1.151-2.317 1.173-2.376-.026-.01-2.276-.871-2.3-3.448zm-2.248-6.364c.593-.722.995-1.734.884-2.744-.856.033-1.891.565-2.502 1.283-.55.642-1.034 1.657-.9 2.637.952.074 1.925-.484 2.518-1.176z"/>
</svg>
