<svg xmlns="http://www.w3.org/2000/svg" viewBox="0 0 48 48" width="20px" height="20px">
    <path fill="#EA4335" d="M24 9.5c3.14 0 5.97 1.17 8.1 3.07l6.08-6.08C34.19 3.22 29.4 1 24 1 14.93 1 7.13 6.6 3.67 14.33l7.51 5.82C13.07 13.57 18.08 9.5 24 9.5z" />
    <path fill="#4285F4" d="M46.65 24.27c0-1.7-.14-3.37-.4-5H24v9.48h12.77c-.55 2.95-2.23 5.47-4.74 7.17v5.85h7.69C44.61 37.12 46.65 31.12 46.65 24.27z" />
    <path fill="#FBBC04" d="M10.18 28.15c-.66-1.92-1.04-3.97-1.04-6.15s.38-4.23 1.04-6.15v-5.9H3.67C1.36 14.55 0 19.1 0 24c0 4.9 1.36 9.45 3.67 13.85l7.51-5.7z" />
    <path fill="#34A853" d="M24 48c5.4 0 10.19-1.78 14.08-4.8l-7.69-5.85c-2.2 1.5-5 2.35-8.12 2.35-5.92 0-10.93-4.07-12.7-9.48H3.67v5.98C7.13 41.4 14.93 47 24 47z" />
</svg>
